<svg width="40" height="40" viewBox="0 0 40 40" fill="none" xmlns="http://www.w3.org/2000/svg">
<path d="M0.221069 33.5141V7.41802C0.221069 4.26099 2.78044 1.70239 5.93669 1.70239H34.0734C37.2304 1.70239 39.789 4.26177 39.789 7.41802V33.5133C39.789 36.6704 37.2297 39.229 34.0734 39.229H5.93669C2.77966 39.2297 0.221069 36.6704 0.221069 33.5141Z" fill="#DF3042"/>
<path d="M32.3633 20.4368C32.3633 13.5181 26.8304 7.90869 20.0054 7.90869C13.1804 7.90869 7.64685 13.5181 7.64685 20.4368C7.64685 27.3556 13.1797 32.9649 20.0047 32.9649C23.7758 32.9649 27.1523 31.2517 29.4187 28.5517C29.7851 29.4493 30.0265 30.2915 30.1609 31.0267C30.1812 31.1376 31.6617 30.2009 31.6453 30.0853C31.5289 29.2915 31.0875 28.2235 30.4789 27.0868C31.6719 25.1603 32.3633 22.8806 32.3633 20.4368ZM21.6492 24.3978C17.6101 24.3978 14.3367 21.6563 14.3367 18.2751C14.3367 14.8938 17.6109 12.1524 21.6492 12.1524C25.6875 12.1524 28.9617 14.8938 28.9617 18.2751C28.9617 19.8009 28.2929 21.1954 27.1898 22.2681C26.6804 21.6735 26.1984 21.1806 25.7906 20.8524C25.7476 20.8181 24.25 21.7485 24.3062 21.7938C24.8898 22.2626 25.4226 22.7509 25.9094 23.2501C24.7101 23.9712 23.239 24.3978 21.6492 24.3978Z" fill="white"/>
<path d="M30.8391 15.4421C31.3055 17.107 31.6844 18.8125 31.6984 20.5414C31.7125 22.2703 31.3414 24.0351 30.4062 25.489C31.1055 23.9578 31.3523 22.2507 31.3508 20.5679C31.3484 18.8843 31.1062 17.2117 30.8391 15.4421Z" fill="#DF3042"/>
<path d="M29.9375 29.2688C30.1133 29.729 30.2141 30.2172 30.2352 30.7094C30.4516 30.5524 30.6672 30.3961 30.8836 30.2391C30.7055 30.2235 30.5258 30.2329 30.3508 30.2665C30.3297 29.9094 30.1898 29.5602 29.9375 29.2688Z" fill="#DF3042"/>
<path d="M11.8883 11.6016C11.1281 12.4219 10.4492 13.3188 9.86719 14.2742C9.02344 15.6578 8.37657 17.1828 8.16172 18.7883C7.94688 20.3945 8.1875 22.0875 9.0086 23.4836C8.10235 19.4008 9.18047 14.925 11.8883 11.6016Z" fill="#DF3042"/>
<path d="M24.5696 21.8039C24.7133 21.9164 24.8571 22.0289 25.0016 22.1414L24.5782 21.8258C24.7063 21.75 24.8243 21.6555 24.9266 21.5469C24.7774 21.7398 24.8344 22.057 25.0415 22.1867C24.8844 22.0953 24.7493 21.9711 24.5696 21.8039Z" fill="#DF3042"/>
</svg>
