<?xml version="1.0" standalone="no"?>
<!DOCTYPE svg PUBLIC "-//W3C//DTD SVG 20010904//EN"
 "http://www.w3.org/TR/2001/REC-SVG-20010904/DTD/svg10.dtd">
<svg version="1.0" xmlns="http://www.w3.org/2000/svg"
 width="261.000000pt" height="261.000000pt" viewBox="0 0 261.000000 261.000000"
 preserveAspectRatio="xMidYMid meet">
<metadata>
Created by potrace 1.14, written by Peter Selinger 2001-2017
</metadata>
<g transform="translate(0.000000,261.000000) scale(0.100000,-0.100000)"
fill="#000000" stroke="none">
<path d="M590 1849 c-157 -7 -163 -8 -230 -35 -164 -64 -298 -221 -336 -393
-66 -292 112 -580 404 -656 55 -14 158 -15 905 -13 l842 3 70 29 c87 36 136
69 202 136 188 189 203 510 35 720 -45 55 -47 58 -97 96 -76 60 -171 99 -260
110 -75 8 -1350 11 -1535 3z"/>
</g>
</svg>
