<svg width="87" height="38" viewBox="0 0 87 38" fill="none" xmlns="http://www.w3.org/2000/svg">
<path d="M1.76892 19.0046C1.76892 9.66277 9.34201 2.08968 18.6839 2.08968L68.3162 2.08968C77.658 2.08968 85.2311 9.66277 85.2311 19.0046C85.2311 28.3465 77.6581 35.9196 68.3162 35.9196L18.6839 35.9196C9.34203 35.9196 1.76892 28.3465 1.76892 19.0046Z" fill="#90FFA2"/>
<path fill-rule="evenodd" clip-rule="evenodd" d="M18.6839 0.621155L68.3162 0.621155C78.4692 0.621155 86.6998 8.85178 86.6998 19.0048C86.6998 29.1578 78.4692 37.3884 68.3162 37.3884L18.6839 37.3884C8.53094 37.3884 0.300293 29.1578 0.300293 19.0048C0.300293 8.85179 8.53093 0.621155 18.6839 0.621155ZM18.6839 2.08981C9.34204 2.08981 1.76895 9.6629 1.76895 19.0048C1.76895 28.3467 9.34205 35.9198 18.6839 35.9198L68.3162 35.9198C77.6581 35.9198 85.2312 28.3467 85.2312 19.0048C85.2312 9.6629 77.6581 2.08981 68.3162 2.08981L18.6839 2.08981Z" fill="white"/>
<path d="M17.1705 27.3501V10.6609L13.7727 10.6942V27.3501H17.1705Z" fill="#282828"/>
<path d="M23.911 14.0587V27.3501H27.2755V14.0587H32.3389V10.6942L18.8476 10.6942V14.0587H23.911Z" fill="#282828"/>
<path d="M66.5646 10.6942L62.2341 27.017V10.6942H55.5717L51.1412 27.3501H54.5057L58.8363 11.0273V27.3501H65.4986L69.8292 11.0273V27.3501H73.227V10.6942H66.5646Z" fill="#282828"/>
<path d="M44.8711 26.549H48.2356L43.8385 15.0009L40.5239 15.0009L37.2094 15.0009L32.7789 26.549H36.1434L40.5239 15.0009L44.8711 26.549Z" fill="#282828"/>
<path fill-rule="evenodd" clip-rule="evenodd" d="M44.3172 27.3501L40.5215 17.2671L36.6968 27.3501H31.614L36.6592 14.1998H44.3911L49.3983 27.3501H44.3172ZM40.5244 15.0009L44.8716 26.549H48.2361L43.8389 15.0009L40.5244 15.0009L37.2098 15.0009L32.7794 26.549H36.1439L40.5244 15.0009Z" fill="white"/>
</svg>
