<svg width="133" height="48" viewBox="0 0 133 48" fill="none" xmlns="http://www.w3.org/2000/svg">
<path d="M0 23.28C0 15.1341 0 11.0612 2.5306 8.53057C5.06119 5.99997 9.13413 5.99997 17.28 5.99997H18.72C26.8659 5.99997 30.9388 5.99997 33.4694 8.53057C36 11.0612 36 15.1341 36 23.28V24.72C36 32.8658 36 36.9388 33.4694 39.4694C30.9388 42 26.8659 42 18.72 42H17.28C9.13413 42 5.06119 42 2.5306 39.4694C0 36.9388 0 32.8658 0 24.72V23.28Z" fill="#0077FF"/>
<path d="M19.1549 31.9351C10.9499 31.9351 6.26995 26.3101 6.07495 16.9501H10.1849C10.3199 23.8201 13.3499 26.7301 15.7499 27.3301V16.9501H19.62V22.8751C21.99 22.6201 24.4797 19.9201 25.3197 16.9501H29.1898C28.5448 20.6101 25.8448 23.3101 23.9248 24.4201C25.8448 25.3201 28.92 27.6751 30.09 31.9351H25.8298C24.9148 29.0851 22.635 26.8801 19.62 26.5801V31.9351H19.1549Z" fill="white"/>
<g clip-path="url(#clip0_103_238)">
<path d="M61.1317 35.8583V12.4568C61.1317 8.88039 64.0552 5.9805 67.6606 5.9805H125.83C129.437 5.9805 132.359 8.88039 132.359 12.4568V35.8583C132.359 39.4356 129.436 42.3346 125.83 42.3346H67.6606C64.0552 42.3346 61.1317 39.4347 61.1317 35.8583Z" fill="#DF2A42"/>
<path d="M91.304 21.7894C91.304 13.9498 84.984 7.5946 77.1875 7.5946C69.3909 7.5946 63.0709 13.9498 63.0709 21.7894C63.0709 29.629 69.3909 35.9842 77.1875 35.9842C81.4959 35.9842 85.3522 34.0427 87.9409 30.9839C88.3586 32.001 88.6352 32.9556 88.7888 33.7882C88.8117 33.914 90.5038 32.8525 90.4837 32.7219C90.3502 31.8221 89.8466 30.612 89.1513 29.3244C90.5143 27.1407 91.304 24.5578 91.304 21.7894ZM79.0656 26.2769C74.4519 26.2769 70.712 23.1707 70.712 19.3399C70.712 15.509 74.4519 12.4028 79.0656 12.4028C83.6792 12.4028 87.4191 15.509 87.4191 19.3399C87.4191 21.0694 86.6551 22.6485 85.3961 23.8633C84.8142 23.1897 84.2639 22.6314 83.7975 22.2596C83.7488 22.2208 82.0377 23.2748 82.1025 23.3259C82.7692 23.8567 83.3778 24.4102 83.9339 24.9759C82.5623 25.7934 80.8816 26.2769 79.0656 26.2769Z" fill="white"/>
<path d="M92.0717 22.2719C92.0946 22.1868 93.4576 24.1424 95.0133 23.4593C95.1173 23.4139 95.4092 29.1323 96.9162 29.1323C98.2773 29.1323 97.9616 24.325 97.9616 22.1158C97.9616 21.9228 99.026 23.0695 100.248 22.2407C100.732 21.9124 101.001 33.1865 96.9744 33.1865C92.5362 33.6132 91.8123 23.2559 92.0717 22.2719Z" fill="white"/>
<path d="M106.517 22.094C103.496 22.094 101.045 24.5805 101.045 27.6469C101.045 30.7133 103.495 33.1997 106.517 33.1997C109.539 33.1997 111.99 30.7133 111.99 27.6469C111.99 24.5805 109.539 22.094 106.517 22.094ZM107.105 28.7907C105.604 28.7907 104.386 27.7888 104.386 26.5522C104.386 25.3165 105.603 24.3146 107.105 24.3146C108.607 24.3146 109.824 25.3165 109.824 26.5522C109.824 27.7888 108.607 28.7907 107.105 28.7907Z" fill="white"/>
<path d="M113.968 12.7832C114.758 14.1258 115.616 13.5799 115.587 13.7152C113.154 25.1964 116.371 31.4787 116.332 31.5345C115.585 32.5923 115.965 33.2698 115.911 33.2215C110.821 28.7056 113.516 12.014 113.968 12.7832Z" fill="white"/>
<path d="M117.918 12.7832C118.709 14.1258 119.567 13.5799 119.538 13.7152C117.105 25.1964 120.322 31.4787 120.283 31.5345C119.536 32.5923 119.916 33.2698 119.861 33.2215C114.771 28.7056 117.465 12.014 117.918 12.7832Z" fill="white"/>
<path d="M129.214 22.2407C127.992 23.0695 126.927 21.9228 126.927 22.1158C126.927 24.325 127.242 29.1323 125.882 29.1323C124.375 29.1323 124.083 23.4129 123.979 23.4593C122.423 24.1424 121.059 22.1868 121.037 22.2719C120.778 23.2559 121.502 33.6122 125.94 33.1865C126.249 33.1865 126.532 33.1193 126.793 32.9972C126.364 34.9349 124.89 39.8406 121.184 38.1073C121.069 38.0533 121.298 39.5208 120.284 40.1329C120.238 40.1604 125.435 43.3857 128.044 36.69C129.26 33.5706 129.455 28.1672 129.455 25.5048V25.5039C129.544 23.5984 129.393 22.1196 129.214 22.2407Z" fill="white"/>
<path d="M89.5633 16.1296C90.0965 18.0162 90.5285 19.9482 90.5448 21.9076C90.561 23.8661 90.1365 25.8663 89.0682 27.5144C89.8666 25.7792 90.1489 23.8453 90.147 21.9379C90.1441 20.0305 89.8675 18.1345 89.5633 16.1296Z" fill="#DF3042"/>
<path d="M88.5332 31.7957C88.7335 32.317 88.8489 32.8705 88.8737 33.4277C89.1208 33.2499 89.3678 33.0729 89.6139 32.8951C89.4107 32.8771 89.2047 32.8875 89.0053 32.9263C88.9815 32.5213 88.8213 32.1259 88.5332 31.7957Z" fill="#DF3042"/>
<path d="M67.9162 11.7784C67.0473 12.7084 66.2728 13.7236 65.607 14.806C64.6437 16.3737 63.9045 18.1014 63.6584 19.9208C63.4132 21.7402 63.687 23.6589 64.6265 25.2409C63.5916 20.6152 64.823 15.544 67.9162 11.7784Z" fill="#DF3042"/>
<path d="M82.4019 23.3382C82.5659 23.4659 82.7309 23.5927 82.895 23.7204L82.4114 23.3628C82.5583 23.2767 82.6928 23.1698 82.8091 23.0468C82.6384 23.2663 82.7033 23.6249 82.9398 23.7725C82.7614 23.6674 82.606 23.5274 82.4019 23.3382Z" fill="#DF3042"/>
<path d="M95.3654 27.5097C95.4798 28.1398 95.8117 28.7293 96.2925 29.1579C95.8947 28.7122 95.5905 28.1852 95.3654 27.5097Z" fill="#DF3042"/>
<path d="M122.783 30.6593C122.965 31.0955 123.183 31.5213 123.479 31.8902C123.776 32.2592 124.156 32.5724 124.6 32.7399C124.454 32.6585 124.332 32.5412 124.213 32.4248C123.72 31.947 123.22 31.4588 122.783 30.6593Z" fill="#DF3042"/>
<path d="M123.438 40.6211C123.905 40.7205 124.373 40.482 124.778 40.2304C125.927 39.5179 127.021 38.5567 127.389 37.2643C126.594 38.8263 125.046 39.868 123.438 40.6211Z" fill="#DF3042"/>
<path d="M127.169 24.1499C127.174 23.6296 127.15 23.1092 127.094 22.5917C127.167 22.7932 127.358 22.9474 127.571 22.9786C127.704 22.9985 127.841 22.973 127.974 22.9938C127.836 23.0931 127.67 23.1527 127.502 23.1631C127.467 23.165 127.431 23.166 127.403 23.1849C127.371 23.2067 127.358 23.2464 127.347 23.2842C127.259 23.5832 127.199 23.8888 127.169 24.1499Z" fill="#DF3042"/>
<path d="M121.3 25.0772C121.169 24.308 121.13 23.5227 121.183 22.744C121.274 23.1755 121.653 23.5331 122.091 23.6012C121.935 23.6618 121.761 23.6788 121.596 23.6485C121.562 23.6419 121.523 23.6353 121.496 23.6561C121.476 23.6722 121.469 23.6987 121.463 23.7233C121.356 24.1802 121.294 24.6467 121.3 25.0772Z" fill="#DF3042"/>
<path d="M125.952 22.9361C125.866 23.0156 125.79 23.1055 125.726 23.2029Z" fill="#DF3042"/>
<path d="M117.274 17.3615C116.852 20.0561 116.869 22.8178 117.325 25.5067C117.064 22.8803 117.06 20.2292 117.274 17.3615Z" fill="#DF3042"/>
<path d="M113.3 17.7806C112.878 20.4752 112.896 23.2369 113.352 25.9258C113.09 23.2994 113.087 20.6483 113.3 17.7806Z" fill="#DF3042"/>
<path d="M108.186 28.9223C108.816 28.7359 109.383 28.3451 109.777 27.8247C109.878 27.6932 109.968 27.5504 110.013 27.3914C110.004 27.5267 109.91 27.6402 109.818 27.7396C109.366 28.2259 108.814 28.6204 108.186 28.9223Z" fill="#DF3042"/>
<path d="M105.218 22.5198C104.998 22.5425 104.788 22.622 104.586 22.7118C103.565 23.1679 102.692 23.9437 102.121 24.9002C101.552 25.8568 101.289 26.9902 101.379 28.0972C101.328 26.9212 101.795 25.7622 102.512 24.8245C103.23 23.8888 104.185 23.1537 105.218 22.5198Z" fill="#DF3042"/>
<path d="M92.3837 24.7526C92.2874 24.0733 92.2273 23.3883 92.2025 22.7024C92.2817 23.0468 92.5888 23.3278 92.9417 23.3779C92.7624 23.3855 92.5821 23.3486 92.42 23.271C92.3704 23.7828 92.3513 24.2975 92.3837 24.7526Z" fill="#DF3042"/>
</g>
<g clip-path="url(#clip1_103_238)">
<path fill-rule="evenodd" clip-rule="evenodd" d="M51.7748 21.2227C52.0744 21.5204 52.0752 22.0039 51.7766 22.3026L43.3083 30.7754C43.0098 31.0741 42.5249 31.0749 42.2252 30.7772C41.9256 30.4795 41.9248 29.996 42.2234 29.6973L50.6917 21.2246C50.9902 20.9258 51.4751 20.925 51.7748 21.2227Z" fill="#282828"/>
<path fill-rule="evenodd" clip-rule="evenodd" d="M42.2227 21.2252C42.5204 20.9256 43.0039 20.9248 43.3027 21.2234L51.7754 29.6916C52.0741 29.9902 52.075 30.4751 51.7773 30.7747C51.4796 31.0743 50.9961 31.0752 50.6973 30.7766L42.2246 22.3083C41.9259 22.0097 41.925 21.5248 42.2227 21.2252Z" fill="#282828"/>
</g>
<defs>
<clipPath id="clip0_103_238">
<rect width="71.5366" height="47.3064" fill="white" transform="translate(61)"/>
</clipPath>
<clipPath id="clip1_103_238">
<rect width="13" height="13" fill="white" transform="translate(42 18)"/>
</clipPath>
</defs>
</svg>
