<svg width="146" height="37" viewBox="0 0 146 37" fill="none" xmlns="http://www.w3.org/2000/svg">
<path d="M60.4686 18.3835C60.4686 9.04163 68.0417 1.46854 77.3836 1.46854L127.016 1.46854C136.358 1.46854 143.931 9.04163 143.931 18.3835C143.931 27.7254 136.358 35.2985 127.016 35.2985L77.3836 35.2985C68.0417 35.2985 60.4686 27.7254 60.4686 18.3835Z" fill="#90FFA2"/>
<path fill-rule="evenodd" clip-rule="evenodd" d="M77.3836 0L127.016 0C137.169 0 145.4 8.23063 145.4 18.3836C145.4 28.5366 137.169 36.7673 127.016 36.7673L77.3836 36.7673C67.2306 36.7673 59 28.5366 59 18.3836C59 8.23063 67.2306 0 77.3836 0ZM77.3836 1.46865C68.0417 1.46865 60.4687 9.04175 60.4687 18.3836C60.4687 27.7255 68.0418 35.2986 77.3836 35.2986L127.016 35.2986C136.358 35.2986 143.931 27.7255 143.931 18.3836C143.931 9.04175 136.358 1.46865 127.016 1.46865L77.3836 1.46865Z" fill="#282828"/>
<path d="M75.8702 26.729V10.0397L72.4724 10.073V26.729H75.8702Z" fill="#282828"/>
<path d="M82.6107 13.4375V26.729H85.9752V13.4375H91.0386V10.073H77.5473V13.4375H82.6107Z" fill="#282828"/>
<path d="M125.264 10.073L120.934 26.3958V10.073H114.271L109.841 26.7289H113.205L117.536 10.4061V26.7289H124.198L128.529 10.4061V26.7289H131.927V10.073H125.264Z" fill="#282828"/>
<path d="M103.571 25.9278H106.935L102.538 14.3797L99.2236 14.3797L95.9091 14.3797L91.4786 25.9278H94.8431L99.2236 14.3797L103.571 25.9278Z" fill="#282828"/>
<path fill-rule="evenodd" clip-rule="evenodd" d="M103.017 26.7289L99.2212 16.6459L95.3965 26.7289H90.3137L95.3589 13.5786H99.2248H103.091L108.098 26.7289H103.017ZM99.2241 14.3797L103.571 25.9278H106.936L102.539 14.3797L99.2241 14.3797L95.9096 14.3797L91.4791 25.9278H94.8436L99.2241 14.3797Z" fill="white"/>
<path d="M0 17.28C0 9.13413 0 5.06119 2.5306 2.5306C5.06119 0 9.13413 0 17.28 0H18.72C26.8659 0 30.9388 0 33.4694 2.5306C36 5.06119 36 9.13413 36 17.28V18.72C36 26.8659 36 30.9388 33.4694 33.4694C30.9388 36 26.8659 36 18.72 36H17.28C9.13413 36 5.06119 36 2.5306 33.4694C0 30.9388 0 26.8659 0 18.72V17.28Z" fill="#0077FF"/>
<path d="M19.1549 25.9351C10.9499 25.9351 6.26995 20.3101 6.07495 10.9501H10.1849C10.3199 17.8201 13.3499 20.7301 15.7499 21.3301V10.9501H19.62V16.8751C21.99 16.6201 24.4797 13.9201 25.3197 10.9501H29.1898C28.5448 14.6101 25.8448 17.3101 23.9248 18.4201C25.8448 19.3201 28.92 21.6751 30.09 25.9351H25.8298C24.9148 23.0851 22.635 20.8801 19.62 20.5801V25.9351H19.1549Z" fill="white"/>
<path fill-rule="evenodd" clip-rule="evenodd" d="M51.7748 15.2227C52.0744 15.5204 52.0752 16.0039 51.7766 16.3027L43.3083 24.7754C43.0098 25.0741 42.5249 25.075 42.2252 24.7773C41.9256 24.4796 41.9248 23.9961 42.2234 23.6973L50.6917 15.2246C50.9902 14.9259 51.4751 14.925 51.7748 15.2227Z" fill="#282828"/>
<path fill-rule="evenodd" clip-rule="evenodd" d="M42.2227 15.2252C42.5204 14.9256 43.0039 14.9248 43.3027 15.2234L51.7754 23.6917C52.0741 23.9902 52.075 24.4751 51.7773 24.7748C51.4796 25.0744 50.9961 25.0752 50.6973 24.7766L42.2246 16.3083C41.9259 16.0098 41.925 15.5249 42.2227 15.2252Z" fill="#282828"/>
</svg>
