<?xml version="1.0" standalone="no"?>
<!DOCTYPE svg PUBLIC "-//W3C//DTD SVG 20010904//EN"
 "http://www.w3.org/TR/2001/REC-SVG-20010904/DTD/svg10.dtd">
<svg version="1.0" xmlns="http://www.w3.org/2000/svg"
 width="700.000000pt" height="700.000000pt" viewBox="0 0 700.000000 700.000000"
 preserveAspectRatio="xMidYMid meet">
<metadata>
Created by potrace 1.14, written by Peter Selinger 2001-2017
</metadata>
<g transform="translate(0.000000,700.000000) scale(0.100000,-0.100000)"
fill="#000000" stroke="none">
<path d="M1005 6699 c-277 -14 -504 -114 -684 -304 -150 -158 -238 -335 -271
-545 -8 -55 -11 -687 -11 -2420 0 -1290 3 -2372 6 -2405 14 -144 82 -325 171
-457 152 -224 431 -394 698 -425 34 -4 1209 -7 2611 -7 2531 1 2551 1 2645 21
186 40 361 135 495 269 162 162 267 378 291 597 4 34 7 1124 7 2422 -1 2565 3
2406 -52 2575 -120 368 -481 652 -861 676 -114 8 -4896 10 -5045 3z"/>
</g>
</svg>
